<svg width="258" height="47" viewBox="0 0 258 47" fill="none" xmlns="http://www.w3.org/2000/svg">
<rect width="258" height="46.71" rx="12" fill="#27D845"/>
<path d="M25 10C32.1799 10 38 15.4818 38 22.2444C38 29.007 32.1799 34.4889 25 34.4889C17.8201 34.4889 12 29.007 12 22.2444C12 15.4818 17.8201 10 25 10ZM29.1171 22.2444H20.8829C19.6323 22.2444 18.6079 23.1505 18.5078 24.3052L18.5 24.4888V24.6933C18.5022 26.2926 19.1688 27.8277 20.3571 28.9701C21.5455 30.1124 23.1613 30.7715 24.8589 30.8062C26.5565 30.8409 28.2012 30.2485 29.4411 29.1558C30.6809 28.0631 31.4176 26.5568 31.4935 24.959L31.5 24.6933V24.4888C31.5 23.3109 30.538 22.3461 29.3121 22.2518L29.1171 22.2444ZM28.9 24.6933C28.901 25.6495 28.5061 26.5683 27.7992 27.2546C27.0923 27.9409 26.1292 28.3405 25.1144 28.3686C24.0997 28.3967 23.1133 28.0509 22.3649 27.4049C21.6165 26.7588 21.1651 25.8634 21.1065 24.9088L21.1 24.6933H28.9ZM21.1 14.8978C20.7552 14.8978 20.4246 15.0268 20.1808 15.2564C19.937 15.486 19.8 15.7975 19.8 16.1222V18.5711C19.8 18.8958 19.937 19.2073 20.1808 19.4369C20.4246 19.6665 20.7552 19.7955 21.1 19.7955C21.4448 19.7955 21.7754 19.6665 22.0192 19.4369C22.263 19.2073 22.4 18.8958 22.4 18.5711V16.1222C22.4 15.7975 22.263 15.486 22.0192 15.2564C21.7754 15.0268 21.4448 14.8978 21.1 14.8978ZM27.9809 15.2565L26.6809 16.481C26.4372 16.7106 26.3003 17.022 26.3003 17.3467C26.3003 17.6713 26.4372 17.9827 26.6809 18.2123L27.9809 19.4368C28.2261 19.6598 28.5545 19.7832 28.8953 19.7805C29.2362 19.7777 29.5622 19.6489 29.8033 19.4219C30.0443 19.1948 30.181 18.8877 30.184 18.5667C30.1869 18.2456 30.0559 17.9364 29.8191 17.7054L29.4382 17.3467L29.8191 16.9879C30.0559 16.757 30.1869 16.4477 30.184 16.1266C30.181 15.8056 30.0443 15.4985 29.8033 15.2714C29.5622 15.0444 29.2362 14.9157 28.8953 14.9129C28.5545 14.9101 28.2261 15.0335 27.9809 15.2565Z" fill="white"/>
<path d="M66.631 27.953C65.9777 27.953 65.3897 27.841 64.867 27.617C64.3443 27.3836 63.9337 27.057 63.635 26.637C63.3363 26.217 63.187 25.727 63.187 25.167H64.895C64.9323 25.587 65.0957 25.9323 65.385 26.203C65.6837 26.4736 66.099 26.609 66.631 26.609C67.1817 26.609 67.611 26.4783 67.919 26.217C68.227 25.9463 68.381 25.601 68.381 25.181C68.381 24.8543 68.283 24.5883 68.087 24.383C67.9003 24.1776 67.6623 24.019 67.373 23.907C67.093 23.795 66.701 23.6736 66.197 23.543C65.5623 23.375 65.0443 23.207 64.643 23.039C64.251 22.8616 63.915 22.591 63.635 22.227C63.355 21.863 63.215 21.3776 63.215 20.771C63.215 20.211 63.355 19.721 63.635 19.301C63.915 18.881 64.307 18.559 64.811 18.335C65.315 18.111 65.8983 17.999 66.561 17.999C67.5037 17.999 68.2737 18.237 68.871 18.713C69.4777 19.1796 69.8137 19.8236 69.879 20.645H68.115C68.087 20.2903 67.919 19.987 67.611 19.735C67.303 19.483 66.897 19.357 66.393 19.357C65.9357 19.357 65.5623 19.4736 65.273 19.707C64.9837 19.9403 64.839 20.2763 64.839 20.715C64.839 21.0136 64.9277 21.261 65.105 21.457C65.2917 21.6436 65.525 21.793 65.805 21.905C66.085 22.017 66.4677 22.1383 66.953 22.269C67.597 22.4463 68.1197 22.6236 68.521 22.801C68.9317 22.9783 69.277 23.2536 69.557 23.627C69.8463 23.991 69.991 24.481 69.991 25.097C69.991 25.5916 69.8557 26.0583 69.585 26.497C69.3237 26.9356 68.9363 27.2903 68.423 27.561C67.919 27.8223 67.3217 27.953 66.631 27.953ZM78.9442 23.809C78.9442 24.0983 78.9256 24.3596 78.8882 24.593H72.9942C73.0409 25.209 73.2696 25.7036 73.6802 26.077C74.0909 26.4503 74.5949 26.637 75.1922 26.637C76.0509 26.637 76.6576 26.2776 77.0122 25.559H78.7342C78.5009 26.2683 78.0762 26.8516 77.4602 27.309C76.8536 27.757 76.0976 27.981 75.1922 27.981C74.4549 27.981 73.7922 27.8176 73.2042 27.491C72.6256 27.155 72.1682 26.6883 71.8322 26.091C71.5056 25.4843 71.3422 24.7843 71.3422 23.991C71.3422 23.1976 71.5009 22.5023 71.8182 21.905C72.1449 21.2983 72.5976 20.8316 73.1762 20.505C73.7642 20.1783 74.4362 20.015 75.1922 20.015C75.9202 20.015 76.5689 20.1736 77.1382 20.491C77.7076 20.8083 78.1509 21.2563 78.4682 21.835C78.7856 22.4043 78.9442 23.0623 78.9442 23.809ZM77.2782 23.305C77.2689 22.717 77.0589 22.2456 76.6482 21.891C76.2376 21.5363 75.7289 21.359 75.1222 21.359C74.5716 21.359 74.1002 21.5363 73.7082 21.891C73.3162 22.2363 73.0829 22.7076 73.0082 23.305H77.2782ZM84.4068 20.015C85.0135 20.015 85.5548 20.141 86.0308 20.393C86.5162 20.645 86.8942 21.0183 87.1648 21.513C87.4355 22.0076 87.5708 22.605 87.5708 23.305V27.855H85.9888V23.543C85.9888 22.8523 85.8162 22.325 85.4708 21.961C85.1255 21.5876 84.6542 21.401 84.0568 21.401C83.4595 21.401 82.9835 21.5876 82.6288 21.961C82.2835 22.325 82.1108 22.8523 82.1108 23.543V27.855H80.5148V20.141H82.1108V21.023C82.3722 20.7056 82.7035 20.4583 83.1048 20.281C83.5155 20.1036 83.9495 20.015 84.4068 20.015ZM89.0746 23.963C89.0746 23.1883 89.2333 22.5023 89.5506 21.905C89.8773 21.3076 90.316 20.8456 90.8666 20.519C91.4266 20.183 92.0426 20.015 92.7146 20.015C93.3213 20.015 93.8486 20.1363 94.2966 20.379C94.754 20.6123 95.118 20.9063 95.3886 21.261V20.141H96.9986V27.855H95.3886V26.707C95.118 27.071 94.7493 27.3743 94.2826 27.617C93.816 27.8596 93.284 27.981 92.6866 27.981C92.024 27.981 91.4173 27.813 90.8666 27.477C90.316 27.1316 89.8773 26.6556 89.5506 26.049C89.2333 25.433 89.0746 24.7376 89.0746 23.963ZM95.3886 23.991C95.3886 23.459 95.2766 22.997 95.0526 22.605C94.838 22.213 94.5533 21.9143 94.1986 21.709C93.844 21.5036 93.4613 21.401 93.0506 21.401C92.64 21.401 92.2573 21.5036 91.9026 21.709C91.548 21.905 91.2586 22.199 91.0346 22.591C90.82 22.9736 90.7126 23.431 90.7126 23.963C90.7126 24.495 90.82 24.9616 91.0346 25.363C91.2586 25.7643 91.548 26.0723 91.9026 26.287C92.2666 26.4923 92.6493 26.595 93.0506 26.595C93.4613 26.595 93.844 26.4923 94.1986 26.287C94.5533 26.0816 94.838 25.783 95.0526 25.391C95.2766 24.9896 95.3886 24.523 95.3886 23.991ZM102.987 20.015C103.594 20.015 104.135 20.141 104.611 20.393C105.096 20.645 105.474 21.0183 105.745 21.513C106.016 22.0076 106.151 22.605 106.151 23.305V27.855H104.569V23.543C104.569 22.8523 104.396 22.325 104.051 21.961C103.706 21.5876 103.234 21.401 102.637 21.401C102.04 21.401 101.564 21.5876 101.209 21.961C100.864 22.325 100.691 22.8523 100.691 23.543V27.855H99.0949V20.141H100.691V21.023C100.952 20.7056 101.284 20.4583 101.685 20.281C102.096 20.1036 102.53 20.015 102.987 20.015ZM111.295 20.015C111.892 20.015 112.419 20.1363 112.877 20.379C113.343 20.6123 113.707 20.9063 113.969 21.261V20.141H115.579V27.981C115.579 28.6903 115.429 29.3203 115.131 29.871C114.832 30.431 114.398 30.8696 113.829 31.187C113.269 31.5043 112.597 31.663 111.813 31.663C110.767 31.663 109.899 31.4156 109.209 30.921C108.518 30.4356 108.126 29.773 108.033 28.933H109.615C109.736 29.3343 109.993 29.6563 110.385 29.899C110.786 30.151 111.262 30.277 111.813 30.277C112.457 30.277 112.975 30.081 113.367 29.689C113.768 29.297 113.969 28.7276 113.969 27.981V26.693C113.698 27.057 113.329 27.365 112.863 27.617C112.405 27.8596 111.883 27.981 111.295 27.981C110.623 27.981 110.007 27.813 109.447 27.477C108.896 27.1316 108.457 26.6556 108.131 26.049C107.813 25.433 107.655 24.7376 107.655 23.963C107.655 23.1883 107.813 22.5023 108.131 21.905C108.457 21.3076 108.896 20.8456 109.447 20.519C110.007 20.183 110.623 20.015 111.295 20.015ZM113.969 23.991C113.969 23.459 113.857 22.997 113.633 22.605C113.418 22.213 113.133 21.9143 112.779 21.709C112.424 21.5036 112.041 21.401 111.631 21.401C111.22 21.401 110.837 21.5036 110.483 21.709C110.128 21.905 109.839 22.199 109.615 22.591C109.4 22.9736 109.293 23.431 109.293 23.963C109.293 24.495 109.4 24.9616 109.615 25.363C109.839 25.7643 110.128 26.0723 110.483 26.287C110.847 26.4923 111.229 26.595 111.631 26.595C112.041 26.595 112.424 26.4923 112.779 26.287C113.133 26.0816 113.418 25.783 113.633 25.391C113.857 24.9896 113.969 24.523 113.969 23.991Z" fill="white"/>
</svg>
